name kv01_filtered_grf.mot
datacolumns 37
datarows 9
range 0.002500 0.006500
endheader
time	1_ground_force_vx	1_ground_force_vy	1_ground_force_vz	1_ground_force_px	1_ground_force_py	1_ground_force_pz	1_ground_torque_x	1_ground_torque_y	1_ground_torque_z	2_ground_force_vx	2_ground_force_vy	2_ground_force_vz	2_ground_force_px	2_ground_force_py	2_ground_force_pz	2_ground_torque_x	2_ground_torque_y	2_ground_torque_z	3_ground_force_vx	3_ground_force_vy	3_ground_force_vz	3_ground_force_px	3_ground_force_py	3_ground_force_pz	3_ground_torque_x	3_ground_torque_y	3_ground_torque_z	4_ground_force_vx	4_ground_force_vy	4_ground_force_vz	4_ground_force_px	4_ground_force_py	4_ground_force_pz	4_ground_torque_x	4_ground_torque_y	4_ground_torque_z
            0.002500	            0.010405	           -0.033192	           -0.081566	            0.156654	            0.000000	            1.771401	            0.030026	           -0.016642	            0.005324	           -0.000000	            0.000000	            0.000000	           -0.148868	            0.000000	            0.176960	            0.000000	           -0.000000	            0.000000	            1.118685	           -0.887859	           -0.527717	            0.386539	            0.970431	            1.075276	            0.016980	            0.006183	           -0.033092	           -1.636598	           -0.214483	            0.872731	           -0.369003	            0.969556	            1.108281	           -0.009011	           -0.055022	           -0.004083
            0.003000	            0.010849	           -0.034327	           -0.084442	            0.156654	            0.000000	            1.771401	            0.031067	           -0.017132	            0.005505	           -0.000000	            0.000000	            0.000000	           -0.148868	            0.000000	            0.176960	            0.000000	           -0.000000	            0.000000	            1.035239	           -0.830548	           -0.506881	            0.386539	            0.970431	            1.075276	            0.015613	            0.008246	           -0.032773	           -1.504005	           -0.163213	            0.906543	           -0.369003	            0.969556	            1.108281	           -0.008848	           -0.061090	            0.002612
            0.003500	            0.011263	           -0.035352	           -0.087051	            0.156654	            0.000000	            1.771401	            0.032010	           -0.017563	            0.005668	           -0.000000	            0.000000	            0.000000	           -0.148868	            0.000000	            0.176960	            0.000000	           -0.000000	            0.000000	            0.952219	           -0.774572	           -0.485886	            0.386520	            0.970425	            1.075280	            0.014268	            0.010227	           -0.032349	           -1.373692	           -0.111275	            0.949292	           -0.369003	            0.969557	            1.108279	           -0.008701	           -0.067951	            0.009770
            0.004000	            0.011643	           -0.036255	           -0.089365	            0.156654	            0.000000	            1.771401	            0.032843	           -0.017929	            0.005812	           -0.000000	            0.000000	            0.000000	           -0.148868	            0.000000	            0.176960	            0.000000	           -0.000000	            0.000000	            0.869747	           -0.720072	           -0.464833	            0.386500	            0.970420	            1.075285	            0.012947	            0.012119	           -0.031814	           -1.245935	           -0.058651	            1.001230	           -0.369003	            0.969559	            1.108276	           -0.008575	           -0.075622	            0.017394
            0.004500	            0.011985	           -0.037026	           -0.091358	            0.156654	            0.000000	            1.771401	            0.033556	           -0.018226	            0.005934	           -0.000000	            0.000000	            0.000000	           -0.148868	            0.000000	            0.176960	            0.000000	           -0.000000	            0.000000	            0.787939	           -0.667186	           -0.443825	            0.386481	            0.970414	            1.075290	            0.011652	            0.013913	           -0.031162	           -1.121008	           -0.005322	            1.062589	           -0.369003	            0.969561	            1.108274	           -0.008472	           -0.084120	            0.025487
            0.005000	            0.012286	           -0.037653	           -0.093001	            0.156654	            0.000000	            1.771401	            0.034140	           -0.018447	            0.006033	           -0.000000	            0.000000	            0.000000	           -0.148868	            0.000000	            0.176960	            0.000000	           -0.000000	            0.000000	            0.706912	           -0.616043	           -0.422971	            0.386461	            0.970408	            1.075295	            0.010386	            0.015602	           -0.030387	           -0.999173	            0.048738	            1.133573	           -0.369003	            0.969562	            1.108271	           -0.008397	           -0.093460	            0.034053
            0.005500	            0.012541	           -0.038125	           -0.094266	            0.156654	            0.000000	            1.771401	            0.034585	           -0.018587	            0.006107	           -0.000000	            0.000000	            0.000000	           -0.148868	            0.000000	            0.176960	            0.000000	           -0.000000	            0.000000	            0.626787	           -0.566758	           -0.402376	            0.386443	            0.970403	            1.075299	            0.009152	            0.017179	           -0.029483	           -0.880686	            0.103556	            1.214364	           -0.369004	            0.969564	            1.108269	           -0.008352	           -0.103654	            0.043092
            0.006000	            0.012748	           -0.038432	           -0.095128	            0.156654	            0.000000	            1.771401	            0.034880	           -0.018642	            0.006154	           -0.000000	            0.000000	            0.000000	           -0.148868	            0.000000	            0.176960	            0.000000	           -0.000000	            0.000000	            0.547657	           -0.519460	           -0.382156	            0.386424	            0.970398	            1.075304	            0.007951	            0.018636	           -0.028446	           -0.765794	            0.159160	            1.305117	           -0.369004	            0.969565	            1.108266	           -0.008341	           -0.114714	            0.052604
            0.006500	            0.012902	           -0.038562	           -0.095558	            0.156654	            0.000000	            1.771401	            0.035017	           -0.018606	            0.006174	           -0.000000	            0.000000	            0.000000	           -0.148868	            0.000000	            0.176960	            0.000000	           -0.000000	            0.000000	            0.469624	           -0.474259	           -0.362423	            0.386406	            0.970393	            1.075309	            0.006786	            0.019966	           -0.027272	           -0.654733	            0.215584	            1.405958	           -0.369004	            0.969567	            1.108264	           -0.008368	           -0.126647	            0.062590
